<?xml version="1.0" encoding="UTF-8"?>
<svg xmlns="http://www.w3.org/2000/svg" viewBox="0 0 64 64" width="64" height="64">
  <!-- Navy blue background -->
  <rect width="64" height="64" fill="#3B3B6D"/>
  
  <!-- Orange tree/root design centered -->
  <g transform="translate(32, 32)">
    <!-- Central circle -->
    <circle cx="0" cy="0" r="4" fill="#FF8C42"/>
    
    <!-- Primary branches (8 main directions) -->
    <g stroke="#FF8C42" stroke-width="1.5" fill="none" stroke-linecap="round">
      <!-- Vertical and horizontal main branches -->
      <path d="M 0,-4 L 0,-18 M 0,-10 L -3,-13 M 0,-10 L 3,-13 M 0,-14 L -2,-17 M 0,-14 L 2,-17"/>
      <path d="M 0,4 L 0,18 M 0,10 L -3,13 M 0,10 L 3,13 M 0,14 L -2,17 M 0,14 L 2,17"/>
      <path d="M -4,0 L -18,0 M -10,0 L -13,-3 M -10,0 L -13,3 M -14,0 L -17,-2 M -14,0 L -17,2"/>
      <path d="M 4,0 L 18,0 M 10,0 L 13,-3 M 10,0 L 13,3 M 14,0 L 17,-2 M 14,0 L 17,2"/>
      
      <!-- Diagonal main branches -->
      <path d="M -3,-3 L -13,-13 M -8,-8 L -11,-6 M -8,-8 L -6,-11 M -10,-10 L -13,-9 M -10,-10 L -9,-13"/>
      <path d="M 3,-3 L 13,-13 M 8,-8 L 11,-6 M 8,-8 L 6,-11 M 10,-10 L 13,-9 M 10,-10 L 9,-13"/>
      <path d="M -3,3 L -13,13 M -8,8 L -11,6 M -8,8 L -6,11 M -10,10 L -13,9 M -10,10 L -9,13"/>
      <path d="M 3,3 L 13,13 M 8,8 L 11,6 M 8,8 L 6,11 M 10,10 L 13,9 M 10,10 L 9,13"/>
      
      <!-- Secondary branches between main ones -->
      <path d="M -2,-3.5 L -7,-12 M -5,-8 L -7,-7 M -5,-8 L -4,-10"/>
      <path d="M 2,-3.5 L 7,-12 M 5,-8 L 7,-7 M 5,-8 L 4,-10"/>
      <path d="M -3.5,-2 L -12,-7 M -8,-5 L -7,-7 M -8,-5 L -10,-4"/>
      <path d="M 3.5,-2 L 12,-7 M 8,-5 L 7,-7 M 8,-5 L 10,-4"/>
      <path d="M -3.5,2 L -12,7 M -8,5 L -7,7 M -8,5 L -10,4"/>
      <path d="M 3.5,2 L 12,7 M 8,5 L 7,7 M 8,5 L 10,4"/>
      <path d="M -2,3.5 L -7,12 M -5,8 L -7,7 M -5,8 L -4,10"/>
      <path d="M 2,3.5 L 7,12 M 5,8 L 7,7 M 5,8 L 4,10"/>
      
      <!-- Tertiary branches for fuller appearance -->
      <path d="M -1,-3.8 L -3.5,-14 M -2.5,-9 L -4,-8.5"/>
      <path d="M 1,-3.8 L 3.5,-14 M 2.5,-9 L 4,-8.5"/>
      <path d="M -3.8,-1 L -14,-3.5 M -9,-2.5 L -8.5,-4"/>
      <path d="M 3.8,-1 L 14,-3.5 M 9,-2.5 L 8.5,-4"/>
      <path d="M -3.8,1 L -14,3.5 M -9,2.5 L -8.5,4"/>
      <path d="M 3.8,1 L 14,3.5 M 9,2.5 L 8.5,4"/>
      <path d="M -1,3.8 L -3.5,14 M -2.5,9 L -4,8.5"/>
      <path d="M 1,3.8 L 3.5,14 M 2.5,9 L 4,8.5"/>
    </g>
  </g>
</svg>